# xmcd
#
# Track frame offsets: 
#        150
#        2420
#        34700
#        61077
#        82115
#        113009
#        136222
#        157130
#        166450
#        205318
#        208010
#        242905
#        248558
#
# Disc length: 3744 seconds
#
# Revision: 0
# Processed by: cddbd v1.5.2PL0 Copyright (c) Steve Scherf et al.
# Submitted via: ExactAudioCopy v1.2
#
DISCID=a90e9e0d
DTITLE=Marquise Knox - Black and Blue (Live)
DYEAR=2017
DGENRE=Blues
TTITLE0=Intro (Live)
TTITLE1=Its Not Right (Live)
TTITLE2=When My Baby Moves (Live)
TTITLE3=Sweet Smell (Live)
TTITLE4=Commit a Crime (Live)
TTITLE5=You Keep Asking Me (Live)
TTITLE6=Shine in the Rain (Live)
TTITLE7=Your Mother Dont Know (Live)
TTITLE8=Can a Young Man Play the Blues (Live)
TTITLE9=Trying to Make a Living (Live)
TTITLE10=Bluesman (Live)
TTITLE11=Crowd Love (Live)
TTITLE12=One More Reason to Have the Blues (Live)
EXTD=
EXTT0=
EXTT1=
EXTT2=
EXTT3=
EXTT4=
EXTT5=
EXTT6=
EXTT7=
EXTT8=
EXTT9=
EXTT10=
EXTT11=
EXTT12=
PLAYORDER=
